<svg width="23" height="23" fill="none" xmlns="http://www.w3.org/2000/svg"><path d="M11.444 13.458c-3.117 0-5.643-3.028-5.643-6.76C5.801 2.966 8.327.2 11.444.2c3.118 0 5.645 2.766 5.645 6.498s-2.527 6.76-5.645 6.76zm-8.778 9.138s-1.197.079-1.724-.648c-.285-.392-.086-1.187.109-1.63l.477-1.088s1.32-2.951 2.821-4.661c.923-1.049 2.02-.81 2.73-.469.437.21.931.821 1.292 1.145.498.447 1.377.954 2.813.983h.882c1.435-.029 2.314-.536 2.811-.983.361-.323.842-.954 1.275-1.17.651-.327 1.643-.527 2.541.494 1.503 1.71 2.693 4.714 2.693 4.714l.489 1.067c.202.44.41 1.232.132 1.63-.494.71-1.604.616-1.604.616H2.667z" fill="#fff"/></svg>